<?xml version="1.0" standalone="no"?>
<!DOCTYPE svg PUBLIC "-//W3C//DTD SVG 20010904//EN"
 "http://www.w3.org/TR/2001/REC-SVG-20010904/DTD/svg10.dtd">
<svg version="1.0" xmlns="http://www.w3.org/2000/svg"
 width="256.000000pt" height="200.000000pt" viewBox="0 0 256.000000 200.000000"
 preserveAspectRatio="xMidYMid meet">

<g transform="translate(0.000000,200.000000) scale(0.100000,-0.100000)"
fill="#000000" stroke="none">
<path d="M0 1000 l0 -1000 1280 0 1280 0 0 1000 0 1000 -1280 0 -1280 0 0
-1000z m950 755 l0 -95 -140 0 -140 0 0 -110 0 -110 193 0 c105 0 198 -4 205
-9 9 -5 12 -31 10 -92 l-3 -84 -202 -3 -203 -2 0 -110 0 -110 140 0 140 0 0
-95 0 -95 -235 0 -235 0 0 498 c0 274 3 502 7 505 3 4 109 7 235 7 l228 0 0
-95z m824 85 c94 -14 179 -54 222 -104 93 -108 79 -289 -27 -366 l-40 -29 29
-15 c40 -21 87 -77 102 -122 8 -22 11 -64 8 -106 -13 -172 -145 -258 -397
-258 l-101 0 0 89 0 88 108 5 c114 5 157 19 186 60 32 46 15 112 -37 144 -28
17 -56 19 -239 22 l-208 3 0 293 c0 161 3 296 7 299 10 11 310 8 387 -3z
m-1054 -1215 c0 -24 -2 -25 -65 -25 -63 0 -65 -1 -65 -25 0 -24 3 -25 60 -25
57 0 60 -1 60 -25 0 -24 -3 -25 -60 -25 -57 0 -60 -1 -60 -25 0 -23 3 -24 68
-27 61 -3 67 -5 70 -25 3 -22 1 -23 -92 -23 l-96 0 0 125 0 125 90 0 c89 0 90
0 90 -25z m319 1 c23 -21 28 -65 10 -83 -8 -8 -5 -19 10 -40 18 -24 20 -34 12
-56 -14 -36 -46 -47 -142 -47 l-79 0 0 126 0 126 84 -3 c65 -3 89 -8 105 -23z
m338 -81 c69 -153 67 -145 34 -145 -20 0 -31 7 -39 25 -10 23 -17 25 -70 25
-53 0 -60 -2 -70 -25 -8 -17 -20 -25 -37 -25 -14 0 -25 3 -25 6 0 10 93 218
103 232 6 7 21 12 34 10 20 -2 32 -21 70 -103z m318 95 c22 -8 24 -13 15 -30
-9 -16 -16 -19 -38 -13 -39 10 -73 7 -83 -8 -12 -20 8 -37 53 -44 46 -8 88
-44 88 -75 0 -11 -11 -32 -25 -45 -20 -21 -34 -25 -82 -25 -72 1 -109 18 -91
43 11 14 18 15 49 6 47 -15 92 -5 87 19 -2 11 -23 23 -57 34 -68 22 -81 33
-81 73 0 31 19 56 50 68 25 9 87 8 115 -3z m335 -15 c0 -24 -2 -25 -65 -25
-62 0 -65 -1 -65 -25 0 -22 4 -24 58 -27 49 -3 57 -6 57 -23 0 -17 -8 -20 -57
-23 -54 -3 -58 -5 -58 -27 0 -23 4 -24 68 -27 61 -3 67 -5 70 -25 3 -23 1 -23
-97 -23 l-101 0 0 118 c0 65 3 122 7 125 3 4 46 7 95 7 87 0 88 0 88 -25z
m-1100 -415 c0 -5 -11 -10 -25 -10 -14 0 -25 -4 -25 -10 0 -5 11 -10 25 -10
14 0 25 -4 25 -10 0 -5 -11 -10 -25 -10 -18 0 -25 -5 -25 -20 0 -11 -4 -20
-10 -20 -5 0 -10 23 -10 50 l0 50 35 0 c19 0 35 -4 35 -10z m130 -37 c20 -47
20 -67 -2 -45 -7 7 -21 12 -33 12 -12 0 -26 -5 -33 -12 -21 -21 -21 -4 0 45
11 26 27 47 34 47 7 0 22 -21 34 -47z m130 38 c0 -5 -12 -11 -27 -14 l-28 -3
33 -13 c25 -10 32 -19 30 -35 -3 -23 -37 -33 -66 -20 -13 6 -8 9 18 14 l35 7
-27 11 c-31 13 -42 28 -34 47 6 16 66 21 66 6z m80 -11 c0 -15 7 -20 25 -20
18 0 25 5 25 20 0 11 5 20 10 20 6 0 10 -22 10 -50 0 -27 -4 -50 -10 -50 -5 0
-10 9 -10 20 0 15 -7 20 -25 20 -18 0 -25 -5 -25 -20 0 -11 -4 -20 -10 -20 -5
0 -10 23 -10 50 0 28 5 50 10 50 6 0 10 -9 10 -20z m150 -30 c0 -27 -4 -50
-10 -50 -5 0 -10 23 -10 50 0 28 5 50 10 50 6 0 10 -22 10 -50z m148 38 c7 -7
12 -24 12 -38 0 -34 -17 -50 -52 -50 -18 0 -33 8 -44 25 -15 23 -15 27 0 50
18 27 63 34 84 13z m108 -13 c9 -14 20 -25 25 -25 5 0 9 11 9 25 0 14 5 25 10
25 6 0 10 -22 10 -50 0 -27 -3 -50 -7 -50 -4 0 -20 12 -35 27 l-28 27 0 -27
c0 -17 -5 -27 -15 -27 -11 0 -15 12 -15 50 0 57 18 67 46 25z m-1036 -25 c0
-6 -98 -10 -275 -10 -177 0 -275 4 -275 10 0 6 98 10 275 10 177 0 275 -4 275
-10z m1860 0 c0 -6 -98 -10 -275 -10 -177 0 -275 4 -275 10 0 6 98 10 275 10
177 0 275 -4 275 -10z"/>
<path d="M1570 1555 l0 -115 101 0 c116 0 161 15 185 63 33 63 -12 137 -96
156 -25 6 -78 11 -117 11 l-73 0 0 -115z"/>
<path d="M910 575 c0 -23 4 -25 44 -25 43 0 58 11 49 38 -3 7 -22 12 -49 12
-40 0 -44 -2 -44 -25z"/>
<path d="M910 470 c0 -28 2 -30 38 -30 46 0 78 20 69 44 -5 12 -19 16 -57 16
-49 0 -50 -1 -50 -30z"/>
<path d="M1285 548 c-22 -44 -18 -51 24 -46 l30 3 -18 40 -18 40 -18 -37z"/>
<path d="M1016 175 c-3 -9 0 -15 9 -15 16 0 20 16 6 24 -5 3 -11 -1 -15 -9z"/>
<path d="M1504 186 c-10 -26 4 -48 28 -44 17 2 23 10 23 28 0 18 -6 26 -23 28
-13 2 -25 -3 -28 -12z"/>
</g>
</svg>
